<svg xmlns="http://www.w3.org/2000/svg" fill="none" viewBox="0 0 14 14"><path fill="#201e1e" d="M4.9 8.245H9.099V13.147H4.9z"></path><path fill="#4b5252" d="M12.1574 9.07125H13.25C13.5433 9.07125 13.8097 8.9003 13.9318 8.63367C14.054 8.36705 14.0096 8.05368 13.8181 7.83154L8.32548 1.46014C7.62737 0.65033 6.37265 0.650333 5.67454 1.46014L0.181954 7.83154C-0.00954165 8.05368 -0.053989 8.36705 0.0681832 8.63367C0.190355 8.9003 0.456729 9.07125 0.750011 9.07125H1.84253C1.82106 9.90722 1.87416 10.7445 2.00176 11.5731C2.14121 12.4787 2.92044 13.1471 3.83668 13.1471H5.83216C5.83216 13.1471 5.83216 12.9232 5.83216 12.6471V10.1071C5.83216 9.46225 6.35492 8.9395 6.99977 8.9395C7.64462 8.9395 8.16738 9.46225 8.16738 10.1071V12.6471C8.16738 12.9232 8.16738 13.1471 8.16738 13.1471H10.1632C11.0795 13.1471 11.8587 12.4787 11.9982 11.5731C12.1258 10.7445 12.1789 9.90722 12.1574 9.07125Z"></path></svg>