<svg xmlns="http://www.w3.org/2000/svg" fill="none" viewBox="0 0 48 48"><path fill="#818686" d="M22.1393 4.36679C20.7699 4.06393 19.6271 3.85156 18.8237 3.71449C17.7139 3.52516 16.5794 3.5774 15.4702 3.76983C11.3953 4.47679 7.78519 5.68664 5.60256 6.51503C3.6734 7.24722 2.43847 9.04141 2.33241 11.0484C2.19078 13.7289 2 18.6795 2 25.9002C2 32.8037 2.17439 37.6322 2.31349 40.3856C2.43555 42.8016 4.861 44.2216 7.00273 43.4693C9.95408 42.4327 12.6072 41.7339 14.5205 41.2947C15.4764 41.0753 16.2455 40.9212 16.7723 40.8225C17.0285 40.7745 17.2272 40.7396 17.3621 40.7167C20.7535 41.1855 24.1533 42.0881 26.741 42.8893C28.0581 43.2971 29.1549 43.6756 29.9203 43.9512C30.3028 44.089 30.6021 44.201 30.8042 44.2778C30.9052 44.3163 30.9819 44.3459 31.0325 44.3656L31.0886 44.3876L31.1016 44.3927L31.1046 44.3939C31.3431 44.4888 31.6019 44.5209 31.8564 44.4871C36.604 43.8571 40.9202 42.4255 43.3974 41.4853C45.3266 40.7531 46.5615 38.9589 46.6676 36.9519C46.8092 34.2714 47 29.3208 47 22.1002C47 15.1966 46.8256 10.3681 46.6865 7.61468C46.5645 5.19871 44.139 3.77872 41.9973 4.53097C39.0459 5.56759 36.3928 6.26644 34.4795 6.70559C33.5236 6.92498 32.7545 7.07906 32.2277 7.17778C32.0697 7.20738 31.9336 7.232 31.8208 7.25189C28.2754 5.87337 24.775 4.94972 22.1393 4.36679Z"></path><path fill="#000000" d="M31.5 7.12783V44.4912C31.3649 44.4768 31.2319 44.444 31.1046 44.3934L31.1016 44.3922L31.0886 44.3871L31.0325 44.3651C30.9819 44.3454 30.9052 44.3158 30.8042 44.2773C30.6021 44.2005 30.3028 44.0885 29.9203 43.9508C29.1549 43.6751 28.0581 43.2966 26.741 42.8888C24.1533 42.0876 20.7535 41.185 17.3621 40.7162C17.2703 40.7318 17.1489 40.753 17 40.78V3.60311C17.6098 3.57955 18.2204 3.61108 18.8237 3.714C19.6271 3.85107 20.7699 4.06344 22.1393 4.36631C24.6954 4.93164 28.065 5.81744 31.5 7.12783Z"></path></svg>