<svg xmlns="http://www.w3.org/2000/svg" fill="none" viewBox="0 0 14 14"><path stroke="#ffffff" stroke-linejoin="round" d="M7 1.10352C6.99999 1.10352 7.00001 1.10352 7 1.10352ZM7 1.10352C5.84796 1.10352 4.85872 1.15727 3.86178 1.21145C3.46776 1.23286 3.07254 1.25433 2.66557 1.27258C2.43421 1.28296 2.21166 1.37006 2.04428 1.53014C1.50008 2.05058 0.859131 2.79343 0.859131 3.43124C0.859131 4.06532 1.47076 4.71167 2.02494 5.28221C2.20672 5.46936 2.45359 5.58022 2.71422 5.59209C3.10406 5.60986 3.48348 5.63048 3.86178 5.65103C4.85872 5.70521 5.84792 5.75896 6.99996 5.75896M7 1.10352L6.99996 5.75896M6.99996 5.75896C6.99997 5.75896 6.99995 5.75896 6.99996 5.75896Z"></path><path stroke="#ffffff" stroke-linejoin="round" d="M7 5.33521C7.00002 5.33521 6.99999 5.33521 7 5.33521ZM7 5.33521C8.15204 5.33521 9.14129 5.38896 10.1382 5.44313C10.5322 5.46455 10.9275 5.48602 11.3344 5.50427C11.5658 5.51465 11.7883 5.60175 11.9557 5.76182C12.4999 6.28227 13.1409 7.02512 13.1409 7.66293C13.1409 8.29701 12.5292 8.94336 11.9751 9.5139C11.7933 9.70105 11.5464 9.81191 11.2858 9.82378C10.8959 9.84155 10.5165 9.86217 10.1382 9.88272C9.14129 9.9369 8.15208 9.99065 7.00004 9.99065M7 5.33521L7.00004 9.99065M7.00004 9.99065C7.00003 9.99065 7.00005 9.99065 7.00004 9.99065Z"></path><path stroke="#ffffff" stroke-linecap="round" stroke-linejoin="round" d="M7 1.14917L7 13.097"></path></svg>