<svg xmlns="http://www.w3.org/2000/svg" fill="none" viewBox="0 0 14 14"><path fill="#9eadb1" fill-rule="evenodd" d="M7 0C3.13401 0 0 3.13401 0 7C0 10.866 3.13401 14 7 14C10.866 14 14 10.866 14 7C14 3.13401 10.866 0 7 0Z" clip-rule="evenodd"></path><path fill="#000000" fill-rule="evenodd" d="M4.62524 5.54665C4.62524 4.2351 5.68847 3.17188 7.00002 3.17188C8.31158 3.17188 9.3748 4.2351 9.3748 5.54665C9.3748 6.85821 8.31158 7.92143 7.00002 7.92143C5.68847 7.92143 4.62524 6.85821 4.62524 5.54665ZM10.6196 10.6369C10.743 10.8243 10.7038 11.0722 10.5318 11.2164C9.57637 12.0176 8.34457 12.5 7.0001 12.5C5.6556 12.5 4.42378 12.0176 3.4683 11.2164C3.29636 11.0722 3.25718 10.8243 3.38051 10.6368C3.62028 10.2724 3.91542 9.94365 4.25811 9.66355C5.03194 9.03106 6.00064 8.68555 7.00006 8.68555C7.99949 8.68555 8.96818 9.03106 9.74201 9.66355C10.0847 9.94366 10.3799 10.2724 10.6196 10.6369Z" clip-rule="evenodd"></path></svg>