<svg xmlns="http://www.w3.org/2000/svg" fill="none" viewBox="0 0 14 14"><path stroke="#ffffff" stroke-linecap="round" stroke-linejoin="round" d="M7.00002 13.125C10.3828 13.125 13.1252 10.3827 13.1252 6.9999C13.1252 3.61708 10.3828 0.874756 7.00002 0.874756C3.6172 0.874756 0.874878 3.61708 0.874878 6.9999C0.874878 10.3827 3.6172 13.125 7.00002 13.125Z"></path><path stroke="#ffffff" stroke-linecap="round" stroke-linejoin="round" d="M9.76537 4.6186C9.9014 5.9581 9.34523 7.36055 8.58316 8.58298L5.41709 5.41676C6.63947 4.65472 8.04193 4.09849 9.38139 4.23459C9.58485 4.25527 9.74471 4.41514 9.76537 4.6186Z"></path><path stroke="#ffffff" stroke-linecap="round" stroke-linejoin="round" d="M4.23463 9.3814C4.0986 8.0419 4.65477 6.63945 5.41684 5.41702L8.58291 8.58324C7.36053 9.34528 5.95807 9.90151 4.61861 9.76541C4.41515 9.74474 4.25529 9.58487 4.23463 9.3814Z"></path></svg>