<svg xmlns="http://www.w3.org/2000/svg" fill="none" viewBox="0 0 14 14"><path stroke="#000000" stroke-linecap="round" stroke-linejoin="round" d="M10.0272 9.96167C11.287 8.92954 11.9165 8.30019 12.8985 7.09041C11.9165 5.88062 11.287 5.25128 10.0272 4.21914"></path><path stroke="#000000" stroke-linecap="round" stroke-linejoin="round" d="M4.00399 7.09058L12.8667 7.09058"></path><path stroke="#000000" stroke-linecap="round" d="M9.83767 1.37903C9.51445 1.08111 9.07877 0.884916 8.58695 0.849908C7.66706 0.784431 6.71957 0.750244 5.75183 0.750244C4.78409 0.750244 3.83659 0.784431 2.9167 0.84991C1.90446 0.921961 1.13009 1.67678 1.08437 2.59588C1.01375 4.01537 0.976562 5.48894 0.976562 7.00024C0.976562 8.51155 1.01375 9.98511 1.08437 11.4046C1.13009 12.3237 1.90446 13.0785 2.9167 13.1506C3.83659 13.2161 4.78409 13.2502 5.75183 13.2502C6.71957 13.2502 7.66706 13.2161 8.58695 13.1506C9.07877 13.1156 9.51445 12.9194 9.83767 12.6215"></path></svg>