<svg xmlns="http://www.w3.org/2000/svg" fill="none" viewBox="0 0 14 14"><path fill="rgba(255,255,255,0)" stroke="#000000" stroke-linejoin="round" d="M2.27986 10.5086C2.32802 10.9889 2.70622 11.3724 3.18546 11.4305C4.40826 11.5789 5.68571 11.7691 6.99996 11.7691C8.3142 11.7691 9.59165 11.5789 10.8144 11.4305C11.2937 11.3724 11.6719 10.9889 11.7201 10.5086C11.8545 9.16738 12.0255 7.76485 12.0255 6.32124C12.0255 4.87762 11.8545 3.47509 11.7201 2.13391C11.6719 1.65356 11.2937 1.27009 10.8144 1.21194C9.59165 1.06358 8.3142 0.873383 6.99996 0.873383C5.68571 0.873383 4.40826 1.06358 3.18546 1.21194C2.70622 1.27009 2.32802 1.65356 2.27986 2.13391C2.14539 3.47509 1.97437 4.87762 1.97437 6.32124C1.97437 7.76485 2.14539 9.16738 2.27986 10.5086Z"></path><path stroke="#000000" stroke-linecap="round" stroke-linejoin="round" d="M3.87573 11.5156L3.87573 13.1471"></path><path stroke="#000000" stroke-linecap="round" stroke-linejoin="round" d="M10.1243 11.5156L10.1243 13.1471"></path><path fill="#c6c6d0" stroke="#000000" stroke-linejoin="round" d="M12.0216 5.93611H1.97827C2.00031 4.83911 2.11133 3.76712 2.21883 2.7292C2.23951 2.52949 2.26007 2.33104 2.27983 2.13391C2.32799 1.65356 2.7062 1.27009 3.18544 1.21194C3.37149 1.18937 3.55881 1.16583 3.74733 1.14213C4.79782 1.0101 5.88565 0.873383 6.99993 0.873383C8.11421 0.873383 9.20204 1.0101 10.2525 1.14213C10.4411 1.16583 10.6284 1.18937 10.8144 1.21194C11.2937 1.27009 11.6719 1.65356 11.72 2.13391C11.7398 2.33104 11.7603 2.5295 11.781 2.72922C11.8885 3.76713 11.9996 4.83911 12.0216 5.93611Z"></path><path stroke="#000000" stroke-linecap="round" d="M5.24268 8.6835H4.49581"></path><path stroke="#000000" stroke-linecap="round" d="M9.50415 8.6835H8.75728"></path></svg>