<svg xmlns="http://www.w3.org/2000/svg" viewBox="0 0 500 500" version="1.1">
	<path d="M 315.437 65.452 C 283.356 71.593, 257.216 87.348, 242.658 109.319 C 230.956 126.977, 223.829 152.500, 225.672 170.139 L 226.286 176.007 222.893 175.394 C 181.840 167.975, 131.401 136.962, 83.538 89.710 C 74.185 80.476, 65.518 72.666, 64.279 72.355 C 59.708 71.208, 54.959 75.044, 49.792 84.057 C 39.345 102.283, 36.148 118.415, 39.031 138.356 C 41.119 152.798, 49.501 172.142, 60.025 186.805 C 66.254 195.483, 66.213 195.653, 59.173 190.294 C 53.372 185.877, 49.861 185.939, 45.262 190.538 L 41.724 194.076 42.306 205.288 C 43.702 232.230, 55.564 255.608, 77.068 273.804 L 84.931 280.456 80.510 281.745 C 74.627 283.461, 72.996 286.012, 73.015 293.473 C 73.075 317.831, 90.170 340.170, 119.211 353.837 C 123.492 355.852, 126.995 357.788, 126.997 358.140 C 127.002 359.106, 95.544 369.324, 78.453 373.909 C 70.177 376.129, 55.102 379.774, 44.953 382.008 C 34.483 384.313, 25.418 386.856, 24 387.887 C 22.002 389.338, 21.440 390.713, 21.202 394.739 C 20.627 404.444, 22.945 405.513, 65.282 415.073 C 173.128 439.426, 263.362 432.642, 326.606 395.427 C 355.485 378.434, 382.886 351.587, 400.017 323.500 C 422.423 286.764, 434.330 245.682, 437.559 193.971 L 438.153 184.442 444.827 181.013 C 455.057 175.756, 468.307 162.003, 473.948 150.788 C 479.491 139.767, 480.510 132.236, 476.968 128.466 C 473.479 124.752, 468.957 124.361, 460.960 127.084 C 457.181 128.371, 453.848 129.181, 453.552 128.885 C 453.256 128.589, 453.898 126.517, 454.979 124.280 C 458.286 117.436, 459.335 111.041, 459.293 98 C 459.205 71.266, 454.326 67.578, 434.087 78.948 C 421.278 86.143, 414.045 89.404, 406.549 91.361 L 400.892 92.838 396.710 88.301 C 388.180 79.047, 375.791 71.727, 361.307 67.383 C 353.835 65.142, 350.226 64.693, 337.500 64.421 C 327.744 64.212, 320.031 64.573, 315.437 65.452 M 319.500 86.161 C 306.357 88.625, 290.884 94.454, 281.420 100.508 C 264.676 111.219, 251.737 130.601, 248.091 150.434 C 246.521 158.973, 246.749 173.370, 248.568 180.624 C 250.807 189.551, 250.255 192.929, 246.102 195.718 C 241.999 198.474, 236.411 198.665, 222.219 196.533 C 179.635 190.137, 126.683 159.673, 76.867 112.910 L 64.234 101.052 61.867 108.276 C 59.980 114.035, 59.517 117.527, 59.582 125.500 C 59.682 137.785, 61.564 145.220, 67.935 158.500 C 73.847 170.822, 82.189 182.059, 94.466 194.236 C 99.742 199.470, 104.144 204.727, 104.527 206.251 C 105.324 209.429, 102.844 214.308, 99 217.121 C 94.468 220.438, 77.972 221.178, 67.820 218.520 C 65.387 217.883, 65.192 218.035, 65.707 220.159 C 66.018 221.447, 67.776 225.803, 69.613 229.840 C 78.391 249.130, 91.893 261.709, 120.762 277.493 C 127.507 281.181, 133.694 285.153, 134.512 286.321 C 136.406 289.024, 136.403 292.320, 134.506 295.989 C 131.600 301.607, 130.119 302, 111.833 302 L 95.111 302 97.280 307.219 C 100.316 314.525, 110.021 324.465, 119.640 330.122 C 130.021 336.226, 138.748 339.575, 151.737 342.439 C 160.422 344.354, 162.857 345.295, 164.714 347.454 C 169.089 352.541, 166.873 359.721, 159.184 365.365 C 148.319 373.341, 115.308 386.259, 88.250 393.123 C 83.162 394.413, 79 395.730, 79 396.049 C 79 396.861, 104.724 401.630, 121.500 403.929 C 162.205 409.506, 204.730 409.695, 236.500 404.438 C 294.967 394.765, 339.618 369.510, 371.336 328.175 C 387.268 307.411, 401.694 276.225, 408.886 247 C 412.877 230.779, 414.987 215.387, 416.152 194 C 417.495 169.317, 417.437 169.468, 426.915 165.944 C 434.632 163.074, 439.818 159.869, 444.398 155.138 C 448.839 150.551, 449.062 150.753, 438.165 149.515 C 426.649 148.206, 416 142.103, 416 136.811 C 416 132.224, 419.337 127.959, 425.498 124.672 C 432.975 120.683, 436.683 115.603, 437.991 107.562 C 438.522 104.295, 438.787 101.454, 438.581 101.247 C 438.374 101.041, 435.121 102.412, 431.352 104.295 C 422.678 108.629, 410.445 112.635, 401.760 113.986 C 393.444 115.280, 389.327 113.883, 386.108 108.674 C 382.750 103.242, 373.652 95.444, 366.724 92.060 C 353.786 85.741, 334.555 83.339, 319.500 86.161" stroke="none" fill="#000000" fill-rule="evenodd"></path>
</svg>