<svg xmlns="http://www.w3.org/2000/svg" viewBox="0 0 500 500" version="1.1">
	<path d="M 263.113 22.545 C 225.682 30.665, 197.913 57.986, 189.466 95 C 188.046 101.222, 187.674 109.699, 187.279 144.750 L 186.802 187 161.151 187.006 C 146.916 187.009, 133.877 187.462, 131.853 188.024 C 124.825 189.976, 125 188.661, 125 239.500 C 125 289.729, 124.878 288.716, 131.215 290.925 C 133.112 291.586, 144.438 292, 160.649 292 L 187 292 187.006 380.250 C 187.009 437.894, 187.370 469.790, 188.044 472.221 C 189.991 479.229, 188.258 479, 239.288 479 C 270.215 479, 285.788 478.648, 287.150 477.920 C 292.046 475.299, 292 476.226, 292 381.032 L 292 292 318.351 292 C 346.916 292, 350.160 291.525, 352.498 287.005 C 354.548 283.040, 375 200.754, 375 196.470 C 375 192.243, 371.626 188.575, 366.861 187.622 C 365.150 187.280, 347.572 187, 327.800 187 L 291.850 187 292.175 167.250 C 292.490 148.081, 292.578 147.353, 295.164 142.500 C 298.589 136.070, 304.195 130.697, 310.500 127.804 C 315.222 125.637, 317.022 125.481, 342.839 125.004 L 370.178 124.500 372.589 121.694 L 375 118.888 375 73.491 C 375 42.350, 374.651 27.329, 373.890 25.657 C 373.279 24.317, 371.683 22.721, 370.343 22.110 C 366.494 20.357, 271.423 20.742, 263.113 22.545 M 265.500 43.468 C 244.412 48.067, 225.836 62.725, 216.033 82.500 C 208.843 97.005, 208.784 97.542, 208.270 153.390 L 207.811 203.280 205.451 205.640 L 203.091 208 174.545 208 L 146 208 146 239.500 L 146 271 174.354 271 L 202.708 271 205.354 273.452 L 208 275.905 208 366.952 L 208 458 239.500 458 L 271 458 271 367.136 L 271 276.273 273.622 273.651 L 276.243 271.029 305.872 270.765 L 335.500 270.500 342.713 242 C 346.680 226.325, 350.204 212.263, 350.543 210.750 L 351.159 208 313.532 208 L 275.905 208 273.452 205.354 L 271 202.708 271 175.564 C 271 145.955, 271.635 141.131, 276.783 131.640 C 282.569 120.973, 294.150 111.036, 305.751 106.785 C 310.736 104.957, 314.323 104.619, 332.750 104.239 L 354 103.801 354 72.901 L 354 42 312.750 42.079 C 282.749 42.137, 269.864 42.516, 265.500 43.468" stroke="none" fill="#000000" fill-rule="evenodd"></path>
</svg>