<svg xmlns="http://www.w3.org/2000/svg" fill="none" viewBox="0 0 14 14"><path fill="#eae9e7" stroke="#000000" stroke-linejoin="round" d="M7 3.625C5.13604 3.625 3.625 5.13604 3.625 7C3.625 8.86396 5.13604 10.375 7 10.375C8.39759 10.375 9.59867 9.52454 10.1107 8.3125H8.07767V5.98706H12C12.5523 5.98706 13.0106 6.43488 12.9987 6.98703C12.9901 7.38503 12.9629 7.78171 12.8847 8.17499C12.3378 10.926 9.91258 13 7 13C3.68629 13 1 10.3137 1 7C1 3.68629 3.68629 1 7 1C8.67386 1 10.1877 1.68647 11.2747 2.78979L9.18213 4.42505C8.59296 3.92499 7.83165 3.625 7 3.625Z"></path></svg>