<svg xmlns="http://www.w3.org/2000/svg" fill="none" viewBox="0 0 14 14"><path fill="rgba(215,224,255,0)" stroke="#000000" stroke-linejoin="round" d="M9.30539 1.39569H4.6946L3.55026 3.46857C3.32391 3.48766 3.09886 3.50716 2.87519 3.52648C1.91876 3.60907 1.13144 4.34597 0.991313 5.29568C0.864368 6.15605 0.75 7.04213 0.75 7.9471C0.75 8.85207 0.864368 9.73815 0.991313 10.5985C1.13144 11.5482 1.91876 12.2851 2.87519 12.3677C4.24744 12.4863 5.62153 12.6044 7 12.6044C8.37847 12.6044 9.75256 12.4863 11.1248 12.3677C12.0812 12.2851 12.8686 11.5482 13.0087 10.5985C13.1356 9.73815 13.25 8.85207 13.25 7.9471C13.25 7.04213 13.1356 6.15605 13.0087 5.29568C12.8686 4.34597 12.0812 3.60907 11.1248 3.52648C10.8998 3.50704 10.6748 3.48755 10.4497 3.46857L9.30539 1.39569Z"></path><path fill="rgba(255,255,255,0)" stroke="#000000" stroke-linecap="round" stroke-linejoin="round" d="M7 9.90216C8.24264 9.90216 9.25 8.8948 9.25 7.65216C9.25 6.40952 8.24264 5.40216 7 5.40216C5.75736 5.40216 4.75 6.40952 4.75 7.65216C4.75 8.8948 5.75736 9.90216 7 9.90216Z"></path></svg>