<svg xmlns="http://www.w3.org/2000/svg" viewBox="0 0 500 500" version="1.1">
	<path d="M 225 22.106 C 153.823 30.142, 89.451 74.084, 53.753 139.005 C 41.869 160.617, 32.477 189.052, 28.320 216 C 25.844 232.046, 25.844 267.954, 28.320 284 C 36.102 334.451, 58.101 378.208, 93.450 413.547 C 127.662 447.749, 168.271 468.694, 215.912 476.709 C 230.881 479.227, 269.119 479.227, 284.088 476.709 C 331.735 468.693, 372.375 447.731, 406.539 413.547 C 436.336 383.733, 456.718 347.878, 466.885 307.393 C 473.056 282.815, 475.390 253.251, 473.073 229 C 471.309 210.545, 469.565 202.960, 466.464 200.250 L 463.888 198 359.867 198 L 255.846 198 252.923 200.923 L 250 203.846 250 250 L 250 296.154 252.923 299.077 L 255.846 302 307.437 302 L 359.029 302 355.898 308.250 C 345.302 329.399, 325.972 349.333, 304.862 360.880 C 287.256 370.510, 271.184 374.456, 250 374.349 C 217.890 374.188, 192.128 363.686, 168.893 341.288 C 144.046 317.335, 130.692 285.343, 130.787 250 C 130.842 229.794, 133.955 214.953, 141.958 196.759 C 152.897 171.891, 176.775 147.270, 200.413 136.486 C 217.937 128.491, 230.486 125.749, 250 125.651 C 277.086 125.514, 298.656 132.743, 320.491 149.275 C 330.923 157.174, 333.063 157.959, 337.556 155.540 C 339.347 154.575, 354.804 139.729, 371.906 122.547 C 402.783 91.526, 403 91.278, 403 87.116 C 403 83.440, 402.425 82.367, 398.317 78.374 C 395.742 75.871, 390.004 70.995, 385.567 67.539 C 354.523 43.355, 316.846 27.590, 278.158 22.594 C 264.943 20.887, 237.988 20.640, 225 22.106 M 226.500 43.096 C 189.480 47.599, 151.136 64.217, 122.500 88.168 C 104.648 103.099, 87.659 122.960, 76.601 141.825 C 72.483 148.852, 71.938 150.351, 73.111 151.440 C 76.734 154.805, 119.331 189.190, 120.368 189.588 C 121.048 189.849, 122.958 187.165, 124.863 183.271 C 137.651 157.135, 163.100 131.436, 188.939 118.567 C 223.073 101.567, 262.834 99.660, 299.035 113.289 C 308.011 116.668, 315.060 120.312, 324.617 126.514 L 332.734 131.782 354.752 109.641 L 376.770 87.500 373.635 84.889 C 366.472 78.922, 349.885 68.571, 338.583 63.014 C 319.203 53.485, 303.309 48.301, 281.500 44.397 C 271.505 42.608, 237.186 41.796, 226.500 43.096 M 58.690 180.739 C 51.363 202.477, 48.327 218.872, 47.346 242 C 46.183 269.427, 50.770 298.633, 60.184 323.754 L 62.500 329.934 88.335 308.847 C 110.426 290.817, 114.085 287.451, 113.577 285.630 C 108.435 267.173, 108.434 232.827, 113.574 214.382 C 114.077 212.577, 110.561 209.330, 89.832 192.457 C 76.449 181.564, 64.784 172.050, 63.909 171.314 C 62.494 170.126, 61.915 171.172, 58.690 180.739 M 271 250 L 271 281 323.750 281.004 C 374.683 281.007, 376.613 281.076, 379.770 283.001 C 385.319 286.384, 385.785 288.856, 382.674 298.407 C 376.602 317.054, 365.087 336.493, 351.799 350.531 C 347.359 355.221, 344.046 359.384, 344.437 359.780 C 344.827 360.176, 355.577 369.149, 368.324 379.720 L 391.500 398.940 397.887 392.220 C 434.310 353.894, 455.054 296.972, 452.629 242 C 452.277 234.025, 451.707 225.588, 451.363 223.250 L 450.737 219 360.868 219 L 271 219 271 250 M 96.898 329.080 C 84.029 339.574, 73.102 348.544, 72.616 349.014 C 71.432 350.158, 79.687 364.088, 88.833 376.381 C 117.776 415.278, 160.363 442.995, 207.117 453.365 C 242.512 461.215, 280.119 459.114, 314.383 447.373 C 333.013 440.990, 358.777 427.134, 372.229 416.265 L 375.958 413.252 351.387 393.008 L 326.816 372.765 322.158 375.448 C 296.093 390.464, 271.415 396.948, 245.262 395.650 C 232.291 395.006, 216.755 392.267, 206.627 388.837 C 172.972 377.441, 142.952 351.321, 126 318.687 C 123.525 313.922, 121.229 310.018, 120.898 310.012 C 120.567 310.005, 109.767 318.586, 96.898 329.080" stroke="none" fill="#000000" fill-rule="evenodd"></path>
</svg>