<svg xmlns="http://www.w3.org/2000/svg" fill="none" viewBox="0 0 14 14"><path fill="#eae9e7" stroke="#000000" stroke-linejoin="round" d="M1.95242 12.7433C2.32052 12.6731 2.69778 12.5221 3.10018 12.3846C3.69126 12.1826 4.28221 11.9542 4.82934 11.8042C4.98531 11.7614 5.14969 11.7646 5.30626 11.8051L8.93209 12.7434C9.54385 12.8864 10.1505 12.6163 10.8286 12.3846C11.2472 12.2415 11.6658 12.0852 12.0689 11.9528C12.2139 11.9052 12.3453 11.7699 12.4554 11.613C12.7449 11.2001 12.8423 10.6851 12.9323 10.1889C13.3416 7.93407 13.3451 5.60471 12.9358 3.34988C12.8429 2.83811 12.7691 2.2808 12.403 1.91135C12.2988 1.80628 12.1781 1.73533 12.0459 1.74757C11.5585 1.79269 11.0373 1.92721 10.6658 2.02964C10.2337 2.14878 9.73859 2.39208 9.25509 2.62356C9.04673 2.72331 8.8099 2.7445 8.58626 2.68662L5.06789 1.77612C4.45614 1.63314 3.51552 1.87025 2.93745 2.02964C2.57636 2.12921 2.17124 2.31548 1.76566 2.50911C1.61975 2.57877 1.49578 2.75809 1.40171 2.94041C1.23935 3.25512 1.17257 3.60764 1.1104 3.95626L1.06086 4.23409C0.653706 6.5172 0.653706 8.85433 1.06086 11.1374C1.15594 11.6706 1.21805 12.2686 1.62337 12.6278C1.72119 12.7145 1.83228 12.7662 1.95242 12.7433Z"></path><path fill="#eae9e7" stroke="#000000" stroke-linejoin="round" d="M8.9918 12.7417L5.21863 11.7977C5.14732 11.7798 5.07446 11.7702 5.00165 11.7697V1.90305C5.00165 1.86088 5.00419 1.81912 5.00914 1.778L8.6832 2.69726C8.78699 2.72323 8.89351 2.73118 8.99837 2.72112V12.6239C8.99837 12.6635 8.99615 12.7029 8.9918 12.7417Z"></path></svg>